STARTFONT 2.1
COMMENT 
COMMENT Ayu 20dots Gothic Version 1.7 (Mar.5,2004).
COMMENT 
COMMENT This font is designed for subset of Kochi-Gothic, and many glyphs
COMMENT are based on Kappa 20 dots fonts created by KANOU Hiroki
COMMENT (kanou@khdd.net).
COMMENT 
COMMENT For more information, see http://x-tt.sourceforge.jp/ayu.html
COMMENT 
COMMENT THIS FONT IS PUBLIC DOMAIN: YOU CAN USE, COPY, MODIFY, EVEN COPYRIGHT
COMMENT AS YOURS AND SELL THIS FONT, BUT YOU CAN'T PROHIBIT ANYONE FROM FREE
COMMENT CIRCULATION OF THIS FONT AND ITS DESCENDANTS INDEPENDENT OF YOUR
COMMENT VARIATIONS AND/OR DERIVATIONS.
COMMENT 
FONT -Ayu-Gothic-Medium-R-Normal--20-190-75-75-C-100-ISO8859-1
SIZE 20 75 75
FONTBOUNDINGBOX 10 20 0 -3
STARTPROPERTIES 19
FONT_ASCENT 17
FONT_DESCENT 3
COPYRIGHT "public domain"
FONTNAME_REGISTRY ""
FOUNDRY "Ayu"
FAMILY_NAME "Gothic"
WEIGHT_NAME "Medium"
SLANT "R"
SETWIDTH_NAME "Normal"
ADD_STYLE_NAME ""
PIXEL_SIZE 20
POINT_SIZE 190
RESOLUTION_X 75
RESOLUTION_Y 75
SPACING "C"
AVERAGE_WIDTH 100
CHARSET_REGISTRY "ISO8859"
CHARSET_ENCODING "1"
DEFAULT_CHAR 0
ENDPROPERTIES
CHARS 191
STARTCHAR space
ENCODING 32
SWIDTH 505 0
DWIDTH 10 0
BBX 10 20 0 -3
BITMAP
0000
0000
0000
0000
0000
0000
0000
0000
0000
0000
0000
0000
0000
0000
0000
0000
0000
0000
0000
0000
ENDCHAR
STARTCHAR !
ENCODING 33
SWIDTH 505 0
DWIDTH 10 0
BBX 10 20 0 -3
BITMAP
0000
0000
0800
0800
0800
0800
0800
0800
0800
0800
0800
0800
0800
0800
0000
0000
1800
1800
0000
0000
ENDCHAR
STARTCHAR "
ENCODING 34
SWIDTH 505 0
DWIDTH 10 0
BBX 10 20 0 -3
BITMAP
0000
1b00
3600
2400
4800
0000
0000
0000
0000
0000
0000
0000
0000
0000
0000
0000
0000
0000
0000
0000
ENDCHAR
STARTCHAR #
ENCODING 35
SWIDTH 505 0
DWIDTH 10 0
BBX 10 20 0 -3
BITMAP
0000
1100
1100
1100
1100
7f80
2200
2200
2200
2200
2200
2200
2200
ff00
4400
4400
4400
4400
0000
0000
ENDCHAR
STARTCHAR $
ENCODING 36
SWIDTH 505 0
DWIDTH 10 0
BBX 10 20 0 -3
BITMAP
0000
0800
0800
1c00
2b00
4900
4800
4800
2800
1c00
0b00
0880
8880
8880
4900
3e00
0800
0800
0800
0000
ENDCHAR
STARTCHAR %
ENCODING 37
SWIDTH 505 0
DWIDTH 10 0
BBX 10 20 0 -3
BITMAP
0000
0000
0080
3080
4900
4900
4a00
4a00
3400
0400
0800
0b00
1480
1480
2480
2480
4300
4000
0000
0000
ENDCHAR
STARTCHAR &
ENCODING 38
SWIDTH 505 0
DWIDTH 10 0
BBX 10 20 0 -3
BITMAP
0000
0000
0000
1c00
2200
4200
4200
2400
2800
1000
2880
4880
8500
8500
8200
4700
38c0
0000
0000
0000
ENDCHAR
STARTCHAR '
ENCODING 39
SWIDTH 505 0
DWIDTH 10 0
BBX 10 20 0 -3
BITMAP
0000
0c00
0c00
0400
0800
0000
0000
0000
0000
0000
0000
0000
0000
0000
0000
0000
0000
0000
0000
0000
ENDCHAR
STARTCHAR (
ENCODING 40
SWIDTH 505 0
DWIDTH 10 0
BBX 10 20 0 -3
BITMAP
0100
0200
0400
0400
0800
0800
0800
1000
1000
1000
1000
1000
0800
0800
0800
0400
0400
0200
0100
0000
ENDCHAR
STARTCHAR )
ENCODING 41
SWIDTH 505 0
DWIDTH 10 0
BBX 10 20 0 -3
BITMAP
2000
1000
0800
0800
0400
0400
0400
0200
0200
0200
0200
0200
0400
0400
0400
0800
0800
1000
2000
0000
ENDCHAR
STARTCHAR *
ENCODING 42
SWIDTH 505 0
DWIDTH 10 0
BBX 10 20 0 -3
BITMAP
0000
0000
0000
0000
0800
0800
4900
2a00
1c00
0800
1c00
2a00
4900
0800
0800
0000
0000
0000
0000
0000
ENDCHAR
STARTCHAR +
ENCODING 43
SWIDTH 505 0
DWIDTH 10 0
BBX 10 20 0 -3
BITMAP
0000
0000
0000
0800
0800
0800
0800
0800
0800
ff80
0800
0800
0800
0800
0800
0800
0000
0000
0000
0000
ENDCHAR
STARTCHAR ,
ENCODING 44
SWIDTH 505 0
DWIDTH 10 0
BBX 10 20 0 -3
BITMAP
0000
0000
0000
0000
0000
0000
0000
0000
0000
0000
0000
0000
0000
0000
0000
1800
1800
0800
1000
0000
ENDCHAR
STARTCHAR -
ENCODING 45
SWIDTH 505 0
DWIDTH 10 0
BBX 10 20 0 -3
BITMAP
0000
0000
0000
0000
0000
0000
0000
0000
0000
7f80
0000
0000
0000
0000
0000
0000
0000
0000
0000
0000
ENDCHAR
STARTCHAR .
ENCODING 46
SWIDTH 505 0
DWIDTH 10 0
BBX 10 20 0 -3
BITMAP
0000
0000
0000
0000
0000
0000
0000
0000
0000
0000
0000
0000
0000
0000
0000
1800
1800
0000
0000
0000
ENDCHAR
STARTCHAR /
ENCODING 47
SWIDTH 505 0
DWIDTH 10 0
BBX 10 20 0 -3
BITMAP
0000
0080
0080
0100
0100
0200
0200
0400
0400
0800
0800
1000
1000
2000
2000
4000
4000
8000
8000
0000
ENDCHAR
STARTCHAR 0
ENCODING 48
SWIDTH 505 0
DWIDTH 10 0
BBX 10 20 0 -3
BITMAP
0000
0000
0000
0c00
1200
2100
2100
4080
4080
4080
4080
4080
4080
2100
2100
1200
0c00
0000
0000
0000
ENDCHAR
STARTCHAR 1
ENCODING 49
SWIDTH 505 0
DWIDTH 10 0
BBX 10 20 0 -3
BITMAP
0000
0000
0000
0400
1c00
0400
0400
0400
0400
0400
0400
0400
0400
0400
0400
0400
0400
0000
0000
0000
ENDCHAR
STARTCHAR 2
ENCODING 50
SWIDTH 505 0
DWIDTH 10 0
BBX 10 20 0 -3
BITMAP
0000
0000
0000
1e00
2100
4080
4080
0080
0100
0100
0200
0400
0800
1000
2000
4000
7f80
0000
0000
0000
ENDCHAR
STARTCHAR 3
ENCODING 51
SWIDTH 505 0
DWIDTH 10 0
BBX 10 20 0 -3
BITMAP
0000
0000
0000
1e00
2100
4080
4080
0080
0100
0600
0100
0080
0080
4080
4080
2100
1e00
0000
0000
0000
ENDCHAR
STARTCHAR 4
ENCODING 52
SWIDTH 505 0
DWIDTH 10 0
BBX 10 20 0 -3
BITMAP
0000
0000
0000
0600
0600
0a00
0a00
1200
1200
2200
2200
4200
7f80
0200
0200
0200
0200
0000
0000
0000
ENDCHAR
STARTCHAR 5
ENCODING 53
SWIDTH 505 0
DWIDTH 10 0
BBX 10 20 0 -3
BITMAP
0000
0000
0000
3f80
2000
2000
2000
2000
2e00
3100
0080
0080
0080
0080
2080
2100
1e00
0000
0000
0000
ENDCHAR
STARTCHAR 6
ENCODING 54
SWIDTH 505 0
DWIDTH 10 0
BBX 10 20 0 -3
BITMAP
0000
0000
0000
1e00
2100
4080
4000
4000
4e00
5100
6080
4080
4080
4080
4080
2100
1e00
0000
0000
0000
ENDCHAR
STARTCHAR 7
ENCODING 55
SWIDTH 505 0
DWIDTH 10 0
BBX 10 20 0 -3
BITMAP
0000
0000
0000
7f00
0100
0100
0200
0200
0200
0400
0400
0400
0800
0800
0800
1000
1000
0000
0000
0000
ENDCHAR
STARTCHAR 8
ENCODING 56
SWIDTH 505 0
DWIDTH 10 0
BBX 10 20 0 -3
BITMAP
0000
0000
0000
1e00
2100
4080
4080
4080
2100
1e00
2100
4080
4080
4080
4080
2100
1e00
0000
0000
0000
ENDCHAR
STARTCHAR 9
ENCODING 57
SWIDTH 505 0
DWIDTH 10 0
BBX 10 20 0 -3
BITMAP
0000
0000
0000
1e00
2100
4080
4080
4080
4080
4080
2180
1e80
0080
0080
4080
2100
1e00
0000
0000
0000
ENDCHAR
STARTCHAR :
ENCODING 58
SWIDTH 505 0
DWIDTH 10 0
BBX 10 20 0 -3
BITMAP
0000
0000
0000
0000
0000
0000
0c00
0c00
0000
0000
0000
0000
0000
0c00
0c00
0000
0000
0000
0000
0000
ENDCHAR
STARTCHAR ;
ENCODING 59
SWIDTH 505 0
DWIDTH 10 0
BBX 10 20 0 -3
BITMAP
0000
0000
0000
0000
0000
0000
0c00
0c00
0000
0000
0000
0000
0000
0c00
0c00
0400
0800
0000
0000
0000
ENDCHAR
STARTCHAR <
ENCODING 60
SWIDTH 505 0
DWIDTH 10 0
BBX 10 20 0 -3
BITMAP
0000
0000
0000
0080
0100
0200
0400
0800
1000
2000
4000
2000
1000
0800
0400
0200
0100
0080
0000
0000
ENDCHAR
STARTCHAR =
ENCODING 61
SWIDTH 505 0
DWIDTH 10 0
BBX 10 20 0 -3
BITMAP
0000
0000
0000
0000
0000
0000
0000
0000
7f80
0000
0000
0000
7f80
0000
0000
0000
0000
0000
0000
0000
ENDCHAR
STARTCHAR >
ENCODING 62
SWIDTH 505 0
DWIDTH 10 0
BBX 10 20 0 -3
BITMAP
0000
0000
0000
4000
2000
1000
0800
0400
0200
0100
0080
0100
0200
0400
0800
1000
2000
4000
0000
0000
ENDCHAR
STARTCHAR ?
ENCODING 63
SWIDTH 505 0
DWIDTH 10 0
BBX 10 20 0 -3
BITMAP
0000
0000
0000
3e00
4100
8080
8080
0080
0100
0200
0400
0800
0800
0800
0000
0000
1800
1800
0000
0000
ENDCHAR
STARTCHAR @
ENCODING 64
SWIDTH 505 0
DWIDTH 10 0
BBX 10 20 0 -3
BITMAP
0000
0000
1e00
2100
4100
4280
8e80
9280
9280
a280
a480
a480
a480
9b00
4000
4080
2100
1e00
0000
0000
ENDCHAR
STARTCHAR A
ENCODING 65
SWIDTH 505 0
DWIDTH 10 0
BBX 10 20 0 -3
BITMAP
0000
0000
0000
0c00
0c00
1200
1200
1200
1200
2100
2100
3f00
2100
4080
4080
4080
4080
0000
0000
0000
ENDCHAR
STARTCHAR B
ENCODING 66
SWIDTH 505 0
DWIDTH 10 0
BBX 10 20 0 -3
BITMAP
0000
0000
0000
7e00
4100
4080
4080
4080
4100
7e00
4100
4080
4080
4080
4080
4100
7e00
0000
0000
0000
ENDCHAR
STARTCHAR C
ENCODING 67
SWIDTH 505 0
DWIDTH 10 0
BBX 10 20 0 -3
BITMAP
0000
0000
0000
1e00
2100
4080
4080
8000
8000
8000
8000
8000
8000
4080
4080
2100
1e00
0000
0000
0000
ENDCHAR
STARTCHAR D
ENCODING 68
SWIDTH 505 0
DWIDTH 10 0
BBX 10 20 0 -3
BITMAP
0000
0000
0000
7c00
4200
4100
4100
4080
4080
4080
4080
4080
4080
4100
4100
4200
7c00
0000
0000
0000
ENDCHAR
STARTCHAR E
ENCODING 69
SWIDTH 505 0
DWIDTH 10 0
BBX 10 20 0 -3
BITMAP
0000
0000
0000
7f80
4000
4000
4000
4000
4000
7f00
4000
4000
4000
4000
4000
4000
7f80
0000
0000
0000
ENDCHAR
STARTCHAR F
ENCODING 70
SWIDTH 505 0
DWIDTH 10 0
BBX 10 20 0 -3
BITMAP
0000
0000
0000
7f80
4000
4000
4000
4000
4000
7f00
4000
4000
4000
4000
4000
4000
4000
0000
0000
0000
ENDCHAR
STARTCHAR G
ENCODING 71
SWIDTH 505 0
DWIDTH 10 0
BBX 10 20 0 -3
BITMAP
0000
0000
0000
1e00
2100
4080
4080
8000
8000
8000
8780
8080
8080
4080
4180
2280
1c80
0000
0000
0000
ENDCHAR
STARTCHAR H
ENCODING 72
SWIDTH 505 0
DWIDTH 10 0
BBX 10 20 0 -3
BITMAP
0000
0000
0000
4080
4080
4080
4080
4080
4080
7f80
4080
4080
4080
4080
4080
4080
4080
0000
0000
0000
ENDCHAR
STARTCHAR I
ENCODING 73
SWIDTH 505 0
DWIDTH 10 0
BBX 10 20 0 -3
BITMAP
0000
0000
0000
1c00
0800
0800
0800
0800
0800
0800
0800
0800
0800
0800
0800
0800
1c00
0000
0000
0000
ENDCHAR
STARTCHAR J
ENCODING 74
SWIDTH 505 0
DWIDTH 10 0
BBX 10 20 0 -3
BITMAP
0000
0000
0000
0200
0200
0200
0200
0200
0200
0200
0200
0200
0200
0200
4200
4200
2400
1800
0000
0000
ENDCHAR
STARTCHAR K
ENCODING 75
SWIDTH 505 0
DWIDTH 10 0
BBX 10 20 0 -3
BITMAP
0000
0000
0000
4100
4200
4200
4400
4800
4800
5400
6400
4200
4200
4100
4100
4080
4080
0000
0000
0000
ENDCHAR
STARTCHAR L
ENCODING 76
SWIDTH 505 0
DWIDTH 10 0
BBX 10 20 0 -3
BITMAP
0000
0000
0000
2000
2000
2000
2000
2000
2000
2000
2000
2000
2000
2000
2000
2000
3f80
0000
0000
0000
ENDCHAR
STARTCHAR M
ENCODING 77
SWIDTH 505 0
DWIDTH 10 0
BBX 10 20 0 -3
BITMAP
0000
0000
0000
8080
8080
c180
c180
c180
a280
a280
a280
9480
9480
9480
8880
8880
8880
0000
0000
0000
ENDCHAR
STARTCHAR N
ENCODING 78
SWIDTH 505 0
DWIDTH 10 0
BBX 10 20 0 -3
BITMAP
0000
0000
0000
4080
6080
6080
5080
5080
4880
4880
4480
4480
4280
4280
4180
4180
4080
0000
0000
0000
ENDCHAR
STARTCHAR O
ENCODING 79
SWIDTH 505 0
DWIDTH 10 0
BBX 10 20 0 -3
BITMAP
0000
0000
0000
1e00
2100
2100
4080
4080
4080
4080
4080
4080
4080
4080
2100
2100
1e00
0000
0000
0000
ENDCHAR
STARTCHAR P
ENCODING 80
SWIDTH 505 0
DWIDTH 10 0
BBX 10 20 0 -3
BITMAP
0000
0000
0000
7e00
4100
4080
4080
4080
4100
7e00
4000
4000
4000
4000
4000
4000
4000
0000
0000
0000
ENDCHAR
STARTCHAR Q
ENCODING 81
SWIDTH 505 0
DWIDTH 10 0
BBX 10 20 0 -3
BITMAP
0000
0000
0000
1e00
2100
2100
4080
4080
4080
4080
4080
4080
4080
4480
2300
2100
1e80
0080
0000
0000
ENDCHAR
STARTCHAR R
ENCODING 82
SWIDTH 505 0
DWIDTH 10 0
BBX 10 20 0 -3
BITMAP
0000
0000
0000
7e00
4100
4080
4080
4080
4100
7e00
4400
4200
4200
4100
4100
4080
4080
0000
0000
0000
ENDCHAR
STARTCHAR S
ENCODING 83
SWIDTH 505 0
DWIDTH 10 0
BBX 10 20 0 -3
BITMAP
0000
0000
0000
1e00
2100
4080
4000
4000
3000
0c00
0300
0080
0080
4080
4080
2100
1e00
0000
0000
0000
ENDCHAR
STARTCHAR T
ENCODING 84
SWIDTH 505 0
DWIDTH 10 0
BBX 10 20 0 -3
BITMAP
0000
0000
0000
ff80
0800
0800
0800
0800
0800
0800
0800
0800
0800
0800
0800
0800
0800
0000
0000
0000
ENDCHAR
STARTCHAR U
ENCODING 85
SWIDTH 505 0
DWIDTH 10 0
BBX 10 20 0 -3
BITMAP
0000
0000
0000
4080
4080
4080
4080
4080
4080
4080
4080
4080
4080
4080
4080
2100
1e00
0000
0000
0000
ENDCHAR
STARTCHAR V
ENCODING 86
SWIDTH 505 0
DWIDTH 10 0
BBX 10 20 0 -3
BITMAP
0000
0000
0000
4080
4080
4080
4080
2100
2100
2100
2100
1200
1200
1200
0c00
0c00
0c00
0000
0000
0000
ENDCHAR
STARTCHAR W
ENCODING 87
SWIDTH 505 0
DWIDTH 10 0
BBX 10 20 0 -3
BITMAP
0000
0000
0000
8880
8880
8880
8880
8880
5500
5500
5500
5500
5500
2200
2200
2200
2200
0000
0000
0000
ENDCHAR
STARTCHAR X
ENCODING 88
SWIDTH 505 0
DWIDTH 10 0
BBX 10 20 0 -3
BITMAP
0000
0000
0000
4080
4080
2100
2200
1200
1c00
0800
0c00
1400
1200
2100
2100
4080
4080
0000
0000
0000
ENDCHAR
STARTCHAR Y
ENCODING 89
SWIDTH 505 0
DWIDTH 10 0
BBX 10 20 0 -3
BITMAP
0000
0000
0000
8080
8080
4100
2200
2200
1400
1400
0800
0800
0800
0800
0800
0800
0800
0000
0000
0000
ENDCHAR
STARTCHAR Z
ENCODING 90
SWIDTH 505 0
DWIDTH 10 0
BBX 10 20 0 -3
BITMAP
0000
0000
0000
7f00
0100
0200
0200
0400
0400
0800
0800
1000
1000
2000
2000
4000
7f80
0000
0000
0000
ENDCHAR
STARTCHAR [
ENCODING 91
SWIDTH 505 0
DWIDTH 10 0
BBX 10 20 0 -3
BITMAP
0000
1f00
1000
1000
1000
1000
1000
1000
1000
1000
1000
1000
1000
1000
1000
1000
1000
1000
1f00
0000
ENDCHAR
STARTCHAR \
ENCODING 92
SWIDTH 505 0
DWIDTH 10 0
BBX 10 20 0 -3
BITMAP
0000
8000
8000
4000
4000
2000
2000
1000
1000
0800
0800
0400
0400
0200
0200
0100
0100
0080
0080
0000
ENDCHAR
STARTCHAR ]
ENCODING 93
SWIDTH 505 0
DWIDTH 10 0
BBX 10 20 0 -3
BITMAP
0000
3e00
0200
0200
0200
0200
0200
0200
0200
0200
0200
0200
0200
0200
0200
0200
0200
0200
3e00
0000
ENDCHAR
STARTCHAR ^
ENCODING 94
SWIDTH 505 0
DWIDTH 10 0
BBX 10 20 0 -3
BITMAP
0000
0c00
1200
2100
0000
0000
0000
0000
0000
0000
0000
0000
0000
0000
0000
0000
0000
0000
0000
0000
ENDCHAR
STARTCHAR _
ENCODING 95
SWIDTH 505 0
DWIDTH 10 0
BBX 10 20 0 -3
BITMAP
0000
0000
0000
0000
0000
0000
0000
0000
0000
0000
0000
0000
0000
0000
0000
0000
0000
0000
ffc0
0000
ENDCHAR
STARTCHAR `
ENCODING 96
SWIDTH 505 0
DWIDTH 10 0
BBX 10 20 0 -3
BITMAP
0000
3000
3000
2000
1000
0000
0000
0000
0000
0000
0000
0000
0000
0000
0000
0000
0000
0000
0000
0000
ENDCHAR
STARTCHAR a
ENCODING 97
SWIDTH 505 0
DWIDTH 10 0
BBX 10 20 0 -3
BITMAP
0000
0000
0000
0000
0000
0000
0000
1e00
2100
4080
0180
0e80
3080
4080
4080
4180
3e80
0000
0000
0000
ENDCHAR
STARTCHAR b
ENCODING 98
SWIDTH 505 0
DWIDTH 10 0
BBX 10 20 0 -3
BITMAP
0000
0000
0000
2000
2000
2000
2000
2e00
3100
2080
2080
2080
2080
2080
2080
3100
2e00
0000
0000
0000
ENDCHAR
STARTCHAR c
ENCODING 99
SWIDTH 505 0
DWIDTH 10 0
BBX 10 20 0 -3
BITMAP
0000
0000
0000
0000
0000
0000
0000
1e00
2100
4080
4000
4000
4000
4000
4080
2100
1e00
0000
0000
0000
ENDCHAR
STARTCHAR d
ENCODING 100
SWIDTH 505 0
DWIDTH 10 0
BBX 10 20 0 -3
BITMAP
0000
0000
0000
0100
0100
0100
0100
1d00
2300
4100
4100
4100
4100
4100
4100
2300
1d00
0000
0000
0000
ENDCHAR
STARTCHAR e
ENCODING 101
SWIDTH 505 0
DWIDTH 10 0
BBX 10 20 0 -3
BITMAP
0000
0000
0000
0000
0000
0000
0000
1e00
2100
4080
4080
7f80
4000
4000
4080
2100
1e00
0000
0000
0000
ENDCHAR
STARTCHAR f
ENCODING 102
SWIDTH 505 0
DWIDTH 10 0
BBX 10 20 0 -3
BITMAP
0000
0000
0000
0700
0880
0800
0800
3f00
0800
0800
0800
0800
0800
0800
0800
0800
0800
0000
0000
0000
ENDCHAR
STARTCHAR g
ENCODING 103
SWIDTH 505 0
DWIDTH 10 0
BBX 10 20 0 -3
BITMAP
0000
0000
0000
0000
0000
0000
0080
3d00
4200
4200
4200
4200
3c00
4000
3800
4700
8080
8080
8080
7f00
ENDCHAR
STARTCHAR h
ENCODING 104
SWIDTH 505 0
DWIDTH 10 0
BBX 10 20 0 -3
BITMAP
0000
0000
0000
2000
2000
2000
2000
2f00
3080
2080
2080
2080
2080
2080
2080
2080
2080
0000
0000
0000
ENDCHAR
STARTCHAR i
ENCODING 105
SWIDTH 505 0
DWIDTH 10 0
BBX 10 20 0 -3
BITMAP
0000
0000
0000
0c00
0c00
0000
0000
0400
0400
0400
0400
0400
0400
0400
0400
0400
0400
0000
0000
0000
ENDCHAR
STARTCHAR j
ENCODING 106
SWIDTH 505 0
DWIDTH 10 0
BBX 10 20 0 -3
BITMAP
0000
0000
0000
0600
0600
0000
0000
0200
0200
0200
0200
0200
0200
0200
0200
0200
2200
2200
1c00
0000
ENDCHAR
STARTCHAR k
ENCODING 107
SWIDTH 505 0
DWIDTH 10 0
BBX 10 20 0 -3
BITMAP
0000
0000
0000
2000
2000
2000
2000
2100
2200
2400
2400
2800
3400
2200
2200
2100
2080
0000
0000
0000
ENDCHAR
STARTCHAR l
ENCODING 108
SWIDTH 505 0
DWIDTH 10 0
BBX 10 20 0 -3
BITMAP
0000
0000
0000
0c00
0400
0400
0400
0400
0400
0400
0400
0400
0400
0400
0400
0400
0400
0000
0000
0000
ENDCHAR
STARTCHAR m
ENCODING 109
SWIDTH 505 0
DWIDTH 10 0
BBX 10 20 0 -3
BITMAP
0000
0000
0000
0000
0000
0000
0000
5600
6900
4900
4900
4900
4900
4900
4900
4900
4900
0000
0000
0000
ENDCHAR
STARTCHAR n
ENCODING 110
SWIDTH 505 0
DWIDTH 10 0
BBX 10 20 0 -3
BITMAP
0000
0000
0000
0000
0000
0000
0000
5e00
6100
4100
4100
4100
4100
4100
4100
4100
4100
0000
0000
0000
ENDCHAR
STARTCHAR o
ENCODING 111
SWIDTH 505 0
DWIDTH 10 0
BBX 10 20 0 -3
BITMAP
0000
0000
0000
0000
0000
0000
0000
1e00
2100
4080
4080
4080
4080
4080
4080
2100
1e00
0000
0000
0000
ENDCHAR
STARTCHAR p
ENCODING 112
SWIDTH 505 0
DWIDTH 10 0
BBX 10 20 0 -3
BITMAP
0000
0000
0000
0000
0000
0000
0000
2e00
3100
2080
2080
2080
2080
2080
3100
2e00
2000
2000
2000
2000
ENDCHAR
STARTCHAR q
ENCODING 113
SWIDTH 505 0
DWIDTH 10 0
BBX 10 20 0 -3
BITMAP
0000
0000
0000
0000
0000
0000
0000
1d00
2300
4100
4100
4100
4100
4100
2300
1d00
0100
0100
0100
0100
ENDCHAR
STARTCHAR r
ENCODING 114
SWIDTH 505 0
DWIDTH 10 0
BBX 10 20 0 -3
BITMAP
0000
0000
0000
0000
0000
0000
0000
2700
2800
3000
2000
2000
2000
2000
2000
2000
2000
0000
0000
0000
ENDCHAR
STARTCHAR s
ENCODING 115
SWIDTH 505 0
DWIDTH 10 0
BBX 10 20 0 -3
BITMAP
0000
0000
0000
0000
0000
0000
0000
1f00
2080
2080
2000
1c00
0300
0080
4080
2080
1f00
0000
0000
0000
ENDCHAR
STARTCHAR t
ENCODING 116
SWIDTH 505 0
DWIDTH 10 0
BBX 10 20 0 -3
BITMAP
0000
0000
0000
0800
0800
0800
0800
7f00
0800
0800
0800
0800
0800
0800
0800
0800
0600
0000
0000
0000
ENDCHAR
STARTCHAR u
ENCODING 117
SWIDTH 505 0
DWIDTH 10 0
BBX 10 20 0 -3
BITMAP
0000
0000
0000
0000
0000
0000
0000
4100
4100
4100
4100
4100
4100
4100
4100
4300
3d00
0000
0000
0000
ENDCHAR
STARTCHAR v
ENCODING 118
SWIDTH 505 0
DWIDTH 10 0
BBX 10 20 0 -3
BITMAP
0000
0000
0000
0000
0000
0000
0000
4100
4100
4100
2200
2200
2200
1400
1400
0800
0800
0000
0000
0000
ENDCHAR
STARTCHAR w
ENCODING 119
SWIDTH 505 0
DWIDTH 10 0
BBX 10 20 0 -3
BITMAP
0000
0000
0000
0000
0000
0000
0000
8880
8880
8880
8880
5500
5500
5500
2200
2200
2200
0000
0000
0000
ENDCHAR
STARTCHAR x
ENCODING 120
SWIDTH 505 0
DWIDTH 10 0
BBX 10 20 0 -3
BITMAP
0000
0000
0000
0000
0000
0000
0000
4100
2200
2200
1400
0800
0800
1400
2200
2200
4100
0000
0000
0000
ENDCHAR
STARTCHAR y
ENCODING 121
SWIDTH 505 0
DWIDTH 10 0
BBX 10 20 0 -3
BITMAP
0000
0000
0000
0000
0000
0000
0000
4100
4100
4100
2200
2200
1400
1400
0800
0800
0800
1000
6000
0000
ENDCHAR
STARTCHAR z
ENCODING 122
SWIDTH 505 0
DWIDTH 10 0
BBX 10 20 0 -3
BITMAP
0000
0000
0000
0000
0000
0000
0000
7f80
0100
0200
0200
0400
0800
1000
1000
2000
7f80
0000
0000
0000
ENDCHAR
STARTCHAR {
ENCODING 123
SWIDTH 505 0
DWIDTH 10 0
BBX 10 20 0 -3
BITMAP
0100
0200
0200
0400
0400
0400
0400
0400
0400
1800
0400
0400
0400
0400
0400
0400
0200
0200
0100
0000
ENDCHAR
STARTCHAR bar
ENCODING 124
SWIDTH 505 0
DWIDTH 10 0
BBX 10 20 0 -3
BITMAP
0800
0800
0800
0800
0800
0800
0800
0800
0800
0800
0800
0800
0800
0800
0800
0800
0800
0800
0800
0800
ENDCHAR
STARTCHAR }
ENCODING 125
SWIDTH 505 0
DWIDTH 10 0
BBX 10 20 0 -3
BITMAP
2000
1000
1000
0800
0800
0800
0800
0800
0800
0600
0800
0800
0800
0800
0800
0800
1000
1000
2000
0000
ENDCHAR
STARTCHAR ~
ENCODING 126
SWIDTH 505 0
DWIDTH 10 0
BBX 10 20 0 -3
BITMAP
0000
0000
3000
4c80
0300
0000
0000
0000
0000
0000
0000
0000
0000
0000
0000
0000
0000
0000
0000
0000
ENDCHAR
STARTCHAR nobreakspace
ENCODING 160
SWIDTH 505 0
DWIDTH 10 0
BBX 10 20 0 -3
BITMAP
0000
0000
0000
0000
0000
0000
0000
0000
0000
0000
0000
0000
0000
0000
0000
0000
0000
0000
0000
0000
ENDCHAR
STARTCHAR exclamdown
ENCODING 161
SWIDTH 505 0
DWIDTH 10 0
BBX 10 20 0 -3
BITMAP
0000
0000
0000
1800
1800
0000
0000
0800
0800
0800
0800
0800
0800
0800
0800
0800
0800
0800
0000
0000
ENDCHAR
STARTCHAR cent
ENCODING 162
SWIDTH 505 0
DWIDTH 10 0
BBX 10 20 0 -3
BITMAP
0000
0000
0000
0000
0200
0200
0200
1e00
2500
4480
4400
4800
4800
4800
4880
2900
1e00
1000
1000
1000
ENDCHAR
STARTCHAR sterling
ENCODING 163
SWIDTH 505 0
DWIDTH 10 0
BBX 10 20 0 -3
BITMAP
0000
0000
0f00
1080
1080
1000
1000
1000
7f00
1000
1000
1000
1000
7000
9840
9640
6180
0000
0000
0000
ENDCHAR
STARTCHAR currency
ENCODING 164
SWIDTH 505 0
DWIDTH 10 0
BBX 10 20 0 -3
BITMAP
0000
0000
0000
0000
0000
8040
4c80
3300
2100
4080
4080
2100
3300
4c80
8040
0000
0000
0000
0000
0000
ENDCHAR
STARTCHAR yen
ENCODING 165
SWIDTH 505 0
DWIDTH 10 0
BBX 10 20 0 -3
BITMAP
0000
0000
0000
4100
4100
2200
2200
1400
1400
7f00
0800
0800
7f00
0800
0800
0800
0800
0000
0000
0000
ENDCHAR
STARTCHAR brokenbar
ENCODING 166
SWIDTH 505 0
DWIDTH 10 0
BBX 10 20 0 -3
BITMAP
0000
0800
0800
0800
0800
0800
0800
0800
0800
0000
0000
0800
0800
0800
0800
0800
0800
0800
0800
0000
ENDCHAR
STARTCHAR section
ENCODING 167
SWIDTH 505 0
DWIDTH 10 0
BBX 10 20 0 -3
BITMAP
0000
0000
0000
0f00
1080
2080
2000
1e00
1100
2080
2080
1100
0f00
0080
2080
2100
1e00
0000
0000
0000
ENDCHAR
STARTCHAR dieresis
ENCODING 168
SWIDTH 505 0
DWIDTH 10 0
BBX 10 20 0 -3
BITMAP
0000
0000
3300
3300
0000
0000
0000
0000
0000
0000
0000
0000
0000
0000
0000
0000
0000
0000
0000
0000
ENDCHAR
STARTCHAR copyright
ENCODING 169
SWIDTH 505 0
DWIDTH 10 0
BBX 10 20 0 -3
BITMAP
0000
0000
0000
1e00
2100
4080
4c80
9240
9040
9040
9240
4c80
4080
2100
1e00
0000
0000
0000
0000
0000
ENDCHAR
STARTCHAR ordfeminine
ENCODING 170
SWIDTH 505 0
DWIDTH 10 0
BBX 10 20 0 -3
BITMAP
0000
1c00
6200
0200
1e00
2200
4200
4600
3a00
0000
7f00
0000
0000
0000
0000
0000
0000
0000
0000
0000
ENDCHAR
STARTCHAR guillemotleft
ENCODING 171
SWIDTH 505 0
DWIDTH 10 0
BBX 10 20 0 -3
BITMAP
0000
0000
0000
0000
0000
0480
0900
1200
2400
4800
2400
1200
0900
0480
0000
0000
0000
0000
0000
0000
ENDCHAR
STARTCHAR logicalnot
ENCODING 172
SWIDTH 505 0
DWIDTH 10 0
BBX 10 20 0 -3
BITMAP
0000
0000
0000
0000
0000
0000
0000
7f80
0080
0080
0080
0080
0000
0000
0000
0000
0000
0000
0000
0000
ENDCHAR
STARTCHAR softhyphen
ENCODING 173
SWIDTH 505 0
DWIDTH 10 0
BBX 10 20 0 -3
BITMAP
0000
0000
0000
0000
0000
0000
0000
0000
0000
3f00
0000
0000
0000
0000
0000
0000
0000
0000
0000
0000
ENDCHAR
STARTCHAR registered
ENCODING 174
SWIDTH 505 0
DWIDTH 10 0
BBX 10 20 0 -3
BITMAP
0000
0000
0000
1e00
2100
4080
5c80
9240
9240
9c40
9440
9240
5280
4080
2100
1e00
0000
0000
0000
0000
ENDCHAR
STARTCHAR macron
ENCODING 175
SWIDTH 505 0
DWIDTH 10 0
BBX 10 20 0 -3
BITMAP
0000
3f00
0000
0000
0000
0000
0000
0000
0000
0000
0000
0000
0000
0000
0000
0000
0000
0000
0000
0000
ENDCHAR
STARTCHAR degree
ENCODING 176
SWIDTH 505 0
DWIDTH 10 0
BBX 10 20 0 -3
BITMAP
0000
0c00
1200
2100
2100
1200
0c00
0000
0000
0000
0000
0000
0000
0000
0000
0000
0000
0000
0000
0000
ENDCHAR
STARTCHAR plusminus
ENCODING 177
SWIDTH 505 0
DWIDTH 10 0
BBX 10 20 0 -3
BITMAP
0000
0000
0000
0000
0000
0800
0800
0800
7f00
0800
0800
0800
0000
0000
7f00
0000
0000
0000
0000
0000
ENDCHAR
STARTCHAR twosuperior
ENCODING 178
SWIDTH 505 0
DWIDTH 10 0
BBX 10 20 0 -3
BITMAP
0000
1c00
2200
0200
0c00
1000
2000
3e00
0000
0000
0000
0000
0000
0000
0000
0000
0000
0000
0000
0000
ENDCHAR
STARTCHAR threesuperior
ENCODING 179
SWIDTH 505 0
DWIDTH 10 0
BBX 10 20 0 -3
BITMAP
0000
1c00
2200
0200
1c00
0200
2200
1c00
0000
0000
0000
0000
0000
0000
0000
0000
0000
0000
0000
0000
ENDCHAR
STARTCHAR acute
ENCODING 180
SWIDTH 505 0
DWIDTH 10 0
BBX 10 20 0 -3
BITMAP
0000
0600
0c00
1000
0000
0000
0000
0000
0000
0000
0000
0000
0000
0000
0000
0000
0000
0000
0000
0000
ENDCHAR
STARTCHAR mu
ENCODING 181
SWIDTH 505 0
DWIDTH 10 0
BBX 10 20 0 -3
BITMAP
0000
0000
0000
0000
0000
0000
0000
1100
1100
1100
1100
1100
1140
1140
1280
1c00
2000
2000
2000
4000
ENDCHAR
STARTCHAR paragraph
ENCODING 182
SWIDTH 505 0
DWIDTH 10 0
BBX 10 20 0 -3
BITMAP
0000
0000
1e00
3a00
3a00
3a00
3a00
1a00
0a00
0a00
0a00
0a00
0a00
0a00
0a00
0a00
0a00
0000
0000
0000
ENDCHAR
STARTCHAR periodcentered
ENCODING 183
SWIDTH 505 0
DWIDTH 10 0
BBX 10 20 0 -3
BITMAP
0000
0000
0000
0000
0000
0000
0000
0000
0c00
0c00
0c00
0000
0000
0000
0000
0000
0000
0000
0000
0000
ENDCHAR
STARTCHAR cedilla
ENCODING 184
SWIDTH 505 0
DWIDTH 10 0
BBX 10 20 0 -3
BITMAP
0000
0000
0000
0000
0000
0000
0000
0000
0000
0000
0000
0000
0000
0000
0000
0000
1000
0c00
0200
3c00
ENDCHAR
STARTCHAR onesuperior
ENCODING 185
SWIDTH 505 0
DWIDTH 10 0
BBX 10 20 0 -3
BITMAP
0000
0800
1800
2800
0800
0800
0800
0800
0000
0000
0000
0000
0000
0000
0000
0000
0000
0000
0000
0000
ENDCHAR
STARTCHAR ordmasculine
ENCODING 186
SWIDTH 505 0
DWIDTH 10 0
BBX 10 20 0 -3
BITMAP
0000
1c00
2200
4100
4100
4100
4100
2200
1c00
0000
7f00
0000
0000
0000
0000
0000
0000
0000
0000
0000
ENDCHAR
STARTCHAR guillemotright
ENCODING 187
SWIDTH 505 0
DWIDTH 10 0
BBX 10 20 0 -3
BITMAP
0000
0000
0000
0000
0000
4800
2400
1200
0900
0480
0900
1200
2400
4800
0000
0000
0000
0000
0000
0000
ENDCHAR
STARTCHAR onequarter
ENCODING 188
SWIDTH 505 0
DWIDTH 10 0
BBX 10 20 0 -3
BITMAP
0000
2000
6000
a000
2080
2100
2200
0400
0880
1180
2280
47c0
0080
0080
0000
0000
0000
0000
0000
0000
ENDCHAR
STARTCHAR onehalf
ENCODING 189
SWIDTH 505 0
DWIDTH 10 0
BBX 10 20 0 -3
BITMAP
0000
2000
6000
a000
2080
2100
2200
0400
0b80
1440
2080
4100
0200
07c0
0000
0000
0000
0000
0000
0000
ENDCHAR
STARTCHAR threequarters
ENCODING 190
SWIDTH 505 0
DWIDTH 10 0
BBX 10 20 0 -3
BITMAP
0000
f800
1000
6000
1080
8900
7200
0400
0880
1180
2280
47c0
0080
0080
0000
0000
0000
0000
0000
0000
ENDCHAR
STARTCHAR questiondown
ENCODING 191
SWIDTH 505 0
DWIDTH 10 0
BBX 10 20 0 -3
BITMAP
0000
0000
0000
1800
1800
0000
0000
0800
0800
0800
1000
2000
4000
8100
8080
8080
4100
3e00
0000
0000
ENDCHAR
STARTCHAR Agrave
ENCODING 192
SWIDTH 505 0
DWIDTH 10 0
BBX 10 20 0 -3
BITMAP
1800
0400
0200
0000
0c00
0c00
1200
1200
1200
2100
2100
2100
3f00
4080
4080
4080
4080
0000
0000
0000
ENDCHAR
STARTCHAR Aacute
ENCODING 193
SWIDTH 505 0
DWIDTH 10 0
BBX 10 20 0 -3
BITMAP
0600
0800
1000
0000
0c00
0c00
1200
1200
1200
2100
2100
2100
3f00
4080
4080
4080
4080
0000
0000
0000
ENDCHAR
STARTCHAR Acircumflex
ENCODING 194
SWIDTH 505 0
DWIDTH 10 0
BBX 10 20 0 -3
BITMAP
0c00
1200
2100
0000
0c00
0c00
1200
1200
1200
2100
2100
2100
3f00
4080
4080
4080
4080
0000
0000
0000
ENDCHAR
STARTCHAR Atilde
ENCODING 195
SWIDTH 505 0
DWIDTH 10 0
BBX 10 20 0 -3
BITMAP
0000
1900
2600
0000
0c00
0c00
1200
1200
1200
2100
2100
2100
3f00
4080
4080
4080
4080
0000
0000
0000
ENDCHAR
STARTCHAR Adieresis
ENCODING 196
SWIDTH 505 0
DWIDTH 10 0
BBX 10 20 0 -3
BITMAP
3300
3300
0000
0000
0c00
0c00
1200
1200
1200
2100
2100
2100
3f00
4080
4080
4080
4080
0000
0000
0000
ENDCHAR
STARTCHAR Aring
ENCODING 197
SWIDTH 505 0
DWIDTH 10 0
BBX 10 20 0 -3
BITMAP
0c00
1200
0c00
0000
0c00
0c00
1200
1200
1200
2100
2100
2100
3f00
4080
4080
4080
4080
0000
0000
0000
ENDCHAR
STARTCHAR AE
ENCODING 198
SWIDTH 505 0
DWIDTH 10 0
BBX 10 20 0 -3
BITMAP
0000
0000
07c0
0400
0c00
0c00
0c00
1400
1400
1780
2400
3c00
2400
4400
4400
4400
47c0
0000
0000
0000
ENDCHAR
STARTCHAR Ccedilla
ENCODING 199
SWIDTH 505 0
DWIDTH 10 0
BBX 10 20 0 -3
BITMAP
0000
0000
0000
1e00
2100
4080
4080
8000
8000
8000
8000
8000
4000
4080
2100
1e00
0800
0600
0100
1e00
ENDCHAR
STARTCHAR Egrave
ENCODING 200
SWIDTH 505 0
DWIDTH 10 0
BBX 10 20 0 -3
BITMAP
1800
0400
0200
0000
7f80
4000
4000
4000
4000
4000
7e00
4000
4000
4000
4000
4000
7f80
0000
0000
0000
ENDCHAR
STARTCHAR Eacute
ENCODING 201
SWIDTH 505 0
DWIDTH 10 0
BBX 10 20 0 -3
BITMAP
0600
0800
1000
0000
7f80
4000
4000
4000
4000
4000
7e00
4000
4000
4000
4000
4000
7f80
0000
0000
0000
ENDCHAR
STARTCHAR Ecircumflex
ENCODING 202
SWIDTH 505 0
DWIDTH 10 0
BBX 10 20 0 -3
BITMAP
0800
1400
2200
0000
7f80
4000
4000
4000
4000
4000
7e00
4000
4000
4000
4000
4000
7f80
0000
0000
0000
ENDCHAR
STARTCHAR Edieresis
ENCODING 203
SWIDTH 505 0
DWIDTH 10 0
BBX 10 20 0 -3
BITMAP
3300
3300
0000
0000
7f80
4000
4000
4000
4000
4000
7e00
4000
4000
4000
4000
4000
7f80
0000
0000
0000
ENDCHAR
STARTCHAR Igrave
ENCODING 204
SWIDTH 505 0
DWIDTH 10 0
BBX 10 20 0 -3
BITMAP
3000
0800
0400
0000
0800
0800
0800
0800
0800
0800
0800
0800
0800
0800
0800
0800
0800
0000
0000
0000
ENDCHAR
STARTCHAR Iacute
ENCODING 205
SWIDTH 505 0
DWIDTH 10 0
BBX 10 20 0 -3
BITMAP
0600
0800
1000
0000
0800
0800
0800
0800
0800
0800
0800
0800
0800
0800
0800
0800
0800
0000
0000
0000
ENDCHAR
STARTCHAR Icircumflex
ENCODING 206
SWIDTH 505 0
DWIDTH 10 0
BBX 10 20 0 -3
BITMAP
0800
1400
2200
0000
0800
0800
0800
0800
0800
0800
0800
0800
0800
0800
0800
0800
0800
0000
0000
0000
ENDCHAR
STARTCHAR Idieresis
ENCODING 207
SWIDTH 505 0
DWIDTH 10 0
BBX 10 20 0 -3
BITMAP
3300
3300
0000
0000
0800
0800
0800
0800
0800
0800
0800
0800
0800
0800
0800
0800
0800
0000
0000
0000
ENDCHAR
STARTCHAR Eth
ENCODING 208
SWIDTH 505 0
DWIDTH 10 0
BBX 10 20 0 -3
BITMAP
0000
0000
0000
7c00
4200
4100
4100
4080
4080
f880
4080
4080
4080
4100
4100
4200
7c00
0000
0000
0000
ENDCHAR
STARTCHAR Ntilde
ENCODING 209
SWIDTH 505 0
DWIDTH 10 0
BBX 10 20 0 -3
BITMAP
1900
2600
0000
4080
6080
6080
5080
5080
4880
4880
4480
4480
4280
4280
4180
4180
4080
0000
0000
0000
ENDCHAR
STARTCHAR Ograve
ENCODING 210
SWIDTH 505 0
DWIDTH 10 0
BBX 10 20 0 -3
BITMAP
1800
0400
0200
0000
1e00
2100
2100
4080
4080
4080
4080
4080
4080
4080
2100
2100
1e00
0000
0000
0000
ENDCHAR
STARTCHAR Oacute
ENCODING 211
SWIDTH 505 0
DWIDTH 10 0
BBX 10 20 0 -3
BITMAP
0600
0800
1000
0000
1e00
2100
2100
4080
4080
4080
4080
4080
4080
4080
2100
2100
1e00
0000
0000
0000
ENDCHAR
STARTCHAR Ocircumflex
ENCODING 212
SWIDTH 505 0
DWIDTH 10 0
BBX 10 20 0 -3
BITMAP
0800
1400
2200
0000
1e00
2100
2100
4080
4080
4080
4080
4080
4080
4080
2100
2100
1e00
0000
0000
0000
ENDCHAR
STARTCHAR Otilde
ENCODING 213
SWIDTH 505 0
DWIDTH 10 0
BBX 10 20 0 -3
BITMAP
1900
2600
0000
0000
1e00
2100
2100
4080
4080
4080
4080
4080
4080
4080
2100
2100
1e00
0000
0000
0000
ENDCHAR
STARTCHAR Odieresis
ENCODING 214
SWIDTH 505 0
DWIDTH 10 0
BBX 10 20 0 -3
BITMAP
3300
3300
0000
0000
1e00
2100
2100
4080
4080
4080
4080
4080
4080
4080
2100
2100
1e00
0000
0000
0000
ENDCHAR
STARTCHAR multiply
ENCODING 215
SWIDTH 505 0
DWIDTH 10 0
BBX 10 20 0 -3
BITMAP
0000
0000
0000
0000
0000
0000
4080
2100
1200
0c00
0c00
1200
2100
4080
0000
0000
0000
0000
0000
0000
ENDCHAR
STARTCHAR Oslash
ENCODING 216
SWIDTH 505 0
DWIDTH 10 0
BBX 10 20 0 -3
BITMAP
0000
0100
0100
1e00
2300
2300
4480
4480
4480
4480
4880
4880
4880
4880
3100
3100
1e00
2000
2000
0000
ENDCHAR
STARTCHAR Ugrave
ENCODING 217
SWIDTH 505 0
DWIDTH 10 0
BBX 10 20 0 -3
BITMAP
1800
0400
0200
0000
4080
4080
4080
4080
4080
4080
4080
4080
4080
4080
4080
2100
1e00
0000
0000
0000
ENDCHAR
STARTCHAR Uacute
ENCODING 218
SWIDTH 505 0
DWIDTH 10 0
BBX 10 20 0 -3
BITMAP
0600
0800
1000
0000
4080
4080
4080
4080
4080
4080
4080
4080
4080
4080
4080
2100
1e00
0000
0000
0000
ENDCHAR
STARTCHAR Ucircumflex
ENCODING 219
SWIDTH 505 0
DWIDTH 10 0
BBX 10 20 0 -3
BITMAP
0c00
1200
2100
0000
4080
4080
4080
4080
4080
4080
4080
4080
4080
4080
4080
2100
1e00
0000
0000
0000
ENDCHAR
STARTCHAR Udieresis
ENCODING 220
SWIDTH 505 0
DWIDTH 10 0
BBX 10 20 0 -3
BITMAP
3300
3300
0000
0000
4080
4080
4080
4080
4080
4080
4080
4080
4080
4080
4080
2100
1e00
0000
0000
0000
ENDCHAR
STARTCHAR Yacute
ENCODING 221
SWIDTH 505 0
DWIDTH 10 0
BBX 10 20 0 -3
BITMAP
0600
0800
1000
0000
4100
4100
4100
2200
2200
1400
1400
0800
0800
0800
0800
0800
0800
0000
0000
0000
ENDCHAR
STARTCHAR Thorn
ENCODING 222
SWIDTH 505 0
DWIDTH 10 0
BBX 10 20 0 -3
BITMAP
0000
0000
4000
4000
4000
4000
7e00
4100
4080
4080
4080
4100
7e00
4000
4000
4000
4000
0000
0000
0000
ENDCHAR
STARTCHAR germandbls
ENCODING 223
SWIDTH 505 0
DWIDTH 10 0
BBX 10 20 0 -3
BITMAP
0000
0000
0000
1e00
2100
4080
4080
4080
4100
4e00
4100
4080
4080
4080
4080
5100
4e00
0000
0000
0000
ENDCHAR
STARTCHAR agrave
ENCODING 224
SWIDTH 505 0
DWIDTH 10 0
BBX 10 20 0 -3
BITMAP
0000
0000
0000
1800
0400
0200
0000
1e00
2100
4080
0180
0e80
3080
4080
4080
4180
3e80
0000
0000
0000
ENDCHAR
STARTCHAR aacute
ENCODING 225
SWIDTH 505 0
DWIDTH 10 0
BBX 10 20 0 -3
BITMAP
0000
0000
0000
0600
0800
1000
0000
1e00
2100
4080
0180
0e80
3080
4080
4080
4180
3e80
0000
0000
0000
ENDCHAR
STARTCHAR acircumflex
ENCODING 226
SWIDTH 505 0
DWIDTH 10 0
BBX 10 20 0 -3
BITMAP
0000
0000
0400
0a00
1100
0000
0000
1e00
2100
4080
0180
0e80
3080
4080
4080
4180
3e80
0000
0000
0000
ENDCHAR
STARTCHAR atilde
ENCODING 227
SWIDTH 505 0
DWIDTH 10 0
BBX 10 20 0 -3
BITMAP
0000
0000
0000
1900
2600
0000
0000
1e00
2100
4080
0180
0e80
3080
4080
4080
4180
3e80
0000
0000
0000
ENDCHAR
STARTCHAR adieresis
ENCODING 228
SWIDTH 505 0
DWIDTH 10 0
BBX 10 20 0 -3
BITMAP
0000
0000
0000
3300
3300
0000
0000
1e00
2100
4080
0180
0e80
3080
4080
4080
4180
3e80
0000
0000
0000
ENDCHAR
STARTCHAR aring
ENCODING 229
SWIDTH 505 0
DWIDTH 10 0
BBX 10 20 0 -3
BITMAP
0000
0000
0c00
1200
1200
0c00
0000
1e00
2100
4080
0180
0e80
3080
4080
4080
4180
3e80
0000
0000
0000
ENDCHAR
STARTCHAR ae
ENCODING 230
SWIDTH 505 0
DWIDTH 10 0
BBX 10 20 0 -3
BITMAP
0000
0000
0000
0000
0000
0000
0000
7b00
8c80
8840
0840
3fc0
4800
8800
8800
8c40
7380
0000
0000
0000
ENDCHAR
STARTCHAR ccedilla
ENCODING 231
SWIDTH 505 0
DWIDTH 10 0
BBX 10 20 0 -3
BITMAP
0000
0000
0000
0000
0000
0000
0000
1e00
2100
4080
4000
4000
4000
4080
2100
1e00
0800
0600
0100
1e00
ENDCHAR
STARTCHAR egrave
ENCODING 232
SWIDTH 505 0
DWIDTH 10 0
BBX 10 20 0 -3
BITMAP
0000
0000
1800
0400
0200
0000
0000
1e00
2100
4080
4080
7f80
4000
4000
4080
2100
1e00
0000
0000
0000
ENDCHAR
STARTCHAR eacute
ENCODING 233
SWIDTH 505 0
DWIDTH 10 0
BBX 10 20 0 -3
BITMAP
0000
0000
0600
0800
1000
0000
0000
1e00
2100
4080
4080
7f80
4000
4000
4080
2100
1e00
0000
0000
0000
ENDCHAR
STARTCHAR ecircumflex
ENCODING 234
SWIDTH 505 0
DWIDTH 10 0
BBX 10 20 0 -3
BITMAP
0000
0000
0c00
1200
2100
0000
0000
1e00
2100
4080
4080
7f80
4000
4000
4080
2100
1e00
0000
0000
0000
ENDCHAR
STARTCHAR edieresis
ENCODING 235
SWIDTH 505 0
DWIDTH 10 0
BBX 10 20 0 -3
BITMAP
0000
0000
0000
3300
3300
0000
0000
1e00
2100
4080
4080
7f80
4000
4000
4080
2100
1e00
0000
0000
0000
ENDCHAR
STARTCHAR igrave
ENCODING 236
SWIDTH 505 0
DWIDTH 10 0
BBX 10 20 0 -3
BITMAP
0000
0000
1800
0400
0200
0000
0000
0400
0400
0400
0400
0400
0400
0400
0400
0400
0400
0000
0000
0000
ENDCHAR
STARTCHAR iacute
ENCODING 237
SWIDTH 505 0
DWIDTH 10 0
BBX 10 20 0 -3
BITMAP
0000
0000
0600
0800
1000
0000
0000
0400
0400
0400
0400
0400
0400
0400
0400
0400
0400
0000
0000
0000
ENDCHAR
STARTCHAR icircumflex
ENCODING 238
SWIDTH 505 0
DWIDTH 10 0
BBX 10 20 0 -3
BITMAP
0000
0000
0c00
1200
2100
0000
0000
0400
0400
0400
0400
0400
0400
0400
0400
0400
0400
0000
0000
0000
ENDCHAR
STARTCHAR idieresis
ENCODING 239
SWIDTH 505 0
DWIDTH 10 0
BBX 10 20 0 -3
BITMAP
0000
0000
0000
3300
3300
0000
0000
0400
0400
0400
0400
0400
0400
0400
0400
0400
0400
0000
0000
0000
ENDCHAR
STARTCHAR eth
ENCODING 240
SWIDTH 505 0
DWIDTH 10 0
BBX 10 20 0 -3
BITMAP
0000
0000
6200
1400
0800
1400
6200
0100
1f00
2180
4080
4080
4080
4080
4080
2100
1e00
0000
0000
0000
ENDCHAR
STARTCHAR ntilde
ENCODING 241
SWIDTH 505 0
DWIDTH 10 0
BBX 10 20 0 -3
BITMAP
0000
0000
0000
3200
4c00
0000
0000
5e00
6100
4100
4100
4100
4100
4100
4100
4100
4100
0000
0000
0000
ENDCHAR
STARTCHAR ograve
ENCODING 242
SWIDTH 505 0
DWIDTH 10 0
BBX 10 20 0 -3
BITMAP
0000
0000
0000
1800
0400
0200
0000
1e00
2100
4080
4080
4080
4080
4080
4080
2100
1e00
0000
0000
0000
ENDCHAR
STARTCHAR oacute
ENCODING 243
SWIDTH 505 0
DWIDTH 10 0
BBX 10 20 0 -3
BITMAP
0000
0000
0000
0600
0800
1000
0000
1e00
2100
4080
4080
4080
4080
4080
4080
2100
1e00
0000
0000
0000
ENDCHAR
STARTCHAR ocircumflex
ENCODING 244
SWIDTH 505 0
DWIDTH 10 0
BBX 10 20 0 -3
BITMAP
0000
0000
0000
0c00
1200
2100
0000
1e00
2100
4080
4080
4080
4080
4080
4080
2100
1e00
0000
0000
0000
ENDCHAR
STARTCHAR otilde
ENCODING 245
SWIDTH 505 0
DWIDTH 10 0
BBX 10 20 0 -3
BITMAP
0000
0000
0000
1900
2600
0000
0000
1e00
2100
4080
4080
4080
4080
4080
4080
2100
1e00
0000
0000
0000
ENDCHAR
STARTCHAR odieresis
ENCODING 246
SWIDTH 505 0
DWIDTH 10 0
BBX 10 20 0 -3
BITMAP
0000
0000
0000
3300
3300
0000
0000
1e00
2100
4080
4080
4080
4080
4080
4080
2100
1e00
0000
0000
0000
ENDCHAR
STARTCHAR divide
ENCODING 247
SWIDTH 505 0
DWIDTH 10 0
BBX 10 20 0 -3
BITMAP
0000
0000
0000
0000
0000
0c00
0c00
0000
0000
7f80
0000
0000
0c00
0c00
0000
0000
0000
0000
0000
0000
ENDCHAR
STARTCHAR oslash
ENCODING 248
SWIDTH 505 0
DWIDTH 10 0
BBX 10 20 0 -3
BITMAP
0000
0000
0000
0000
0000
0100
0100
1e00
2300
4280
4480
4480
4880
4880
5080
3100
1e00
2000
2000
0000
ENDCHAR
STARTCHAR ugrave
ENCODING 249
SWIDTH 505 0
DWIDTH 10 0
BBX 10 20 0 -3
BITMAP
0000
0000
1800
0400
0200
0000
0000
4100
4100
4100
4100
4100
4100
4100
4100
4300
3d00
0000
0000
0000
ENDCHAR
STARTCHAR uacute
ENCODING 250
SWIDTH 505 0
DWIDTH 10 0
BBX 10 20 0 -3
BITMAP
0000
0000
0600
0800
1000
0000
0000
4100
4100
4100
4100
4100
4100
4100
4100
4300
3d00
0000
0000
0000
ENDCHAR
STARTCHAR ucircumflex
ENCODING 251
SWIDTH 505 0
DWIDTH 10 0
BBX 10 20 0 -3
BITMAP
0000
0000
0c00
1200
2100
0000
0000
4100
4100
4100
4100
4100
4100
4100
4100
4300
3d00
0000
0000
0000
ENDCHAR
STARTCHAR udieresis
ENCODING 252
SWIDTH 505 0
DWIDTH 10 0
BBX 10 20 0 -3
BITMAP
0000
0000
0000
3300
3300
0000
0000
4100
4100
4100
4100
4100
4100
4100
4100
4300
3d00
0000
0000
0000
ENDCHAR
STARTCHAR yacute
ENCODING 253
SWIDTH 505 0
DWIDTH 10 0
BBX 10 20 0 -3
BITMAP
0000
0000
0600
0800
1000
0000
0000
2080
2080
2080
1100
1100
1100
0a00
0a00
0400
0400
0800
0800
3000
ENDCHAR
STARTCHAR thorn
ENCODING 254
SWIDTH 505 0
DWIDTH 10 0
BBX 10 20 0 -3
BITMAP
0000
0000
2000
2000
2000
2000
2000
2e00
3100
2080
2080
2080
2080
2080
3100
2e00
2000
2000
2000
2000
ENDCHAR
STARTCHAR ydieresis
ENCODING 255
SWIDTH 505 0
DWIDTH 10 0
BBX 10 20 0 -3
BITMAP
0000
0000
0000
3300
3300
0000
0000
2080
2080
2080
1100
1100
1100
0a00
0a00
0400
0400
0800
0800
3000
ENDCHAR
ENDFONT
